<svg xmlns="http://www.w3.org/2000/svg" xmlns:xlink="http://www.w3.org/1999/xlink" fill="none" version="1.1" width="20" height="20" viewBox="0 0 20 20"><defs><clipPath id="master_svg0_1_5618"><rect x="0" y="0" width="20" height="20" rx="0"/></clipPath></defs><g clip-path="url(#master_svg0_1_5618)"><g><path d="M15.494248046875,12.018419999999999L15.493748046875,12.01881Q15.386348046875,12.10787,15.326948046875,12.23416Q15.267648046875,12.36045,15.267648046875,12.5Q15.267648046875,12.56156,15.279648046875,12.621929999999999Q15.291648046875,12.6823,15.315148046875,12.739180000000001Q15.338748046875,12.796050000000001,15.372948046875,12.84723Q15.407148046875,12.89841,15.450648046875,12.941939999999999Q15.494248046875,12.98547,15.545348046875,13.01967Q15.596548046875,13.05387,15.653448046875,13.07742Q15.710348046875,13.10098,15.770648046875,13.11299Q15.831048046875,13.125,15.892648046875,13.125Q16.001848046875,13.125,16.104648046875,13.08795Q16.207348046874998,13.0509,16.291448046875,12.98119Q17.856948046875,11.68358,18.834348046875,10.37378Q18.894748046875,10.29281,18.926548046875,10.19692Q18.958448046875,10.10103,18.958448046875,10Q18.958448046875,9.89897,18.926548046875,9.80308Q18.894748046875,9.7072,18.834348046875,9.62622Q14.915848046875,4.375,10.000078046875,4.375Q9.109468046875,4.375,8.196078046875,4.601745Q8.145638046875,4.614267,8.097958046875,4.634949Q8.050278046875,4.655631,8.006668046875,4.683904Q7.963058046875,4.712178,7.924718046875,4.747266Q7.886368046875,4.782355,7.854358046875,4.823294Q7.822338046875,4.864233,7.797518046875,4.9098993Q7.772698046875,4.955565,7.755768046875,5.00470271Q7.738838046875,5.0538404,7.730248046875,5.1051Q7.721668046875,5.15636,7.721668046875,5.208333Q7.721668046875,5.26989,7.733678046875,5.330265Q7.745678046875,5.390639,7.769238046875,5.44751Q7.792798046875,5.504382,7.826998046875,5.555565Q7.861198046875,5.606748,7.904718046875,5.650275Q7.948248046875,5.693802,7.999428046875,5.728002Q8.050618046875,5.762201,8.107488046875,5.7857579999999995Q8.164358046875,5.809315,8.224728046875,5.821324Q8.285108046875,5.833333,8.346668046875,5.833333Q8.423078046875,5.833333,8.497248046875,5.814922Q9.262308046874999,5.625,10.000078046875,5.625Q14.114748046875,5.625,17.543348046875,9.995809999999999Q16.719448046875,11.00277,15.494248046875,12.018419999999999ZM4.506378046875,7.98119Q4.6138080468750005,7.89213,4.673168046875,7.76584Q4.7325180468750006,7.63955,4.7325180468750006,7.5Q4.7325180468750006,7.43844,4.720518046875,7.37807Q4.708508046875,7.31769,4.684948046875,7.26082Q4.661388046875,7.20395,4.627188046875,7.15277Q4.592988046875,7.10159,4.549468046875,7.058059999999999Q4.505938046875,7.014530000000001,4.454758046875,6.98033Q4.403568046875,6.94613,4.346698046875,6.92258Q4.289828046875,6.89902,4.229458046875,6.88701Q4.169078046875001,6.875,4.1075180468750006,6.875Q3.998288046875,6.875,3.895528046875,6.91205Q3.792768046875,6.94911,3.708658046875,7.01882L3.708278046875,7.01914Q2.143072046875,8.31659,1.1658340468750001,9.62622Q1.1054120468750002,9.70719,1.073580046875,9.80308Q1.041748046875,9.89897,1.041748046875,10Q1.041748046875,10.10103,1.073580046875,10.19692Q1.1054120468750002,10.2928,1.1658340468750001,10.37378Q5.084258046875,15.625,10.000078046875,15.625Q10.897758046875,15.625,11.818448046875,15.3947Q11.868748046875,15.3821,11.916348046875,15.3614Q11.963948046875,15.3406,12.007448046875,15.3123Q12.050948046875,15.2841,12.089248046875,15.249Q12.127448046875,15.2139,12.159448046875,15.173Q12.191348046875,15.1321,12.216048046875,15.0864Q12.240848046875,15.0408,12.257748046875,14.99174Q12.274648046875,14.94266,12.283148046875,14.89147Q12.291748046875,14.84028,12.291748046875,14.78837Q12.291748046875,14.72682,12.279748046875,14.66644Q12.267748046875,14.60607,12.244148046875,14.5492Q12.220648046875,14.49233,12.186448046875,14.44114Q12.152248046875,14.38996,12.108648046875,14.34643Q12.065148046875,14.30291,12.013948046875,14.26871Q11.962748046875,14.23451,11.905948046875,14.21095Q11.849048046875,14.18739,11.788648046875,14.17538Q11.728348046875,14.16337,11.666748046875,14.16337Q11.589758046875,14.16337,11.515078046875,14.18206L11.514288046875,14.18226Q10.743398046875,14.375,10.000078046875,14.375Q5.885378046875,14.375,2.456771046875,10.00418Q3.280718046875,8.99717,4.506038046875,7.98147L4.506378046875,7.98119L4.506378046875,7.98119Z" fill-rule="evenodd" fill="#7C7C84" fill-opacity="1"/></g><g><path d="M8.924958046875,9.014636862304688Q9.004248046875,8.928176862304687,9.046788046875,8.818848862304687Q9.089328046875,8.709521862304687,9.089328046875,8.592208862304688Q9.089328046875,8.530651762304688,9.077318046875,8.470277862304687Q9.065308046875,8.409902862304687,9.041758046875,8.353031862304688Q9.018198046875,8.296160862304687,8.983998046875,8.244977862304687Q8.949798046875,8.193794862304687,8.906273046875,8.150266862304688Q8.862745046875,8.106739862304687,8.811562046875,8.072540862304688Q8.760380046875,8.038340862304688,8.703508046875,8.014783862304688Q8.646637046875,7.991226862304687,8.586262046875,7.979217862304687Q8.525888046875,7.9672088623046875,8.464331046875,7.9672088623046875Q8.332973046875,7.9672088623046875,8.212729046875,8.020088862304688Q8.092485046875,8.072968862304688,8.003701946875,8.169780862304687Q7.291748046875,8.946117862304687,7.291748046875,9.999998862304688Q7.291748046875,11.121818862304687,8.085004046875,11.915078862304687Q8.878260046875,12.708338862304688,10.000078046875,12.708338862304688Q11.106128046875,12.708338862304688,11.895928046875,11.934118862304688Q11.985868046875,11.845958862304688,12.034638046875,11.729838862304687Q12.083418046875,11.613728862304688,12.083418046875,11.487788862304686Q12.083418046875,11.426238862304688,12.071408046875,11.365858862304687Q12.059398046875,11.305488862304689,12.035838046875,11.248618862304689Q12.012278046875,11.191738862304687,11.978078046875,11.140558862304687Q11.943878046875,11.089378862304688,11.900358046875,11.045848862304688Q11.856828046875,11.002318862304687,11.805648046875,10.968118862304689Q11.754458046875,10.933928862304688,11.697588046875,10.910368862304688Q11.640718046875,10.886808862304687,11.580348046875,10.874798862304687Q11.519968046875,10.862788862304686,11.458418046875,10.862788862304686Q11.335708046875,10.862788862304686,11.222118046875,10.909178862304687Q11.108518046875,10.955568862304688,11.020898046875,11.041468862304688Q10.595638046874999,11.458338862304688,10.000078046875,11.458338862304688Q9.396028046875,11.458338862304688,8.968888046875,11.031198862304688Q8.541748046875,10.604058862304687,8.541748046875,9.999998862304688Q8.541748046875,9.432503862304687,8.924958046875,9.014636862304688Z" fill-rule="evenodd" fill="#7C7C84" fill-opacity="1"/></g><g><path d="M2.942101,2.058217L17.9419,17.0581Q18.0298,17.146,18.0774,17.2608Q18.125,17.375700000000002,18.125,17.5Q18.125,17.5616,18.113,17.6219Q18.101,17.682299999999998,18.0774,17.7392Q18.0539,17.796,18.0197,17.8472Q17.985500000000002,17.898400000000002,17.9419,17.9419Q17.898400000000002,17.985500000000002,17.8472,18.0197Q17.796,18.0539,17.7392,18.0774Q17.682299999999998,18.101,17.6219,18.113Q17.5616,18.125,17.5,18.125Q17.375700000000002,18.125,17.2608,18.0774Q17.146,18.029899999999998,17.0581,17.9419L2.058217,2.942101L2.058058,2.941942Q1.970151,2.854034,1.9225750000000001,2.739177Q1.875,2.62432,1.875,2.5Q1.875,2.4384429,1.887009,2.378069Q1.8990179999999999,2.317694,1.9225750000000001,2.260823Q1.946132,2.203952,1.980332,2.152769Q2.014531,2.101586,2.058058,2.058058Q2.101586,2.014531,2.152769,1.980332Q2.203952,1.946132,2.260823,1.9225750000000001Q2.317694,1.8990179999999999,2.378069,1.887009Q2.4384429,1.875,2.5,1.875Q2.62432,1.875,2.739177,1.9225750000000001Q2.854034,1.970151,2.941942,2.058058L2.942101,2.058217Z" fill-rule="evenodd" fill="#7C7C84" fill-opacity="1"/></g></g></svg>